<svg xmlns="http://www.w3.org/2000/svg" width="420" height="120" viewBox="0 0 420 120">
  <rect width="420" height="120" fill="transparent"/>
  <path d="M30 90 Q 50 40, 80 60 Q 110 80, 130 50 Q 150 20, 180 55 Q 210 90, 240 45 Q 270 0, 300 50 Q 330 100, 360 55 Q 390 10, 390 10" stroke="#0B5FFF" stroke-width="3" fill="none" stroke-linecap="round"/>
  <path d="M50 95 Q 65 50, 85 65 Q 115 90, 135 55 Q 155 25, 185 58 Q 215 88, 245 48 Q 275 8, 305 55 Q 335 95, 365 50 Q 385 20, 385 20" stroke="#1a202c" stroke-width="1.5" fill="none" stroke-linecap="round" opacity="0.3"/>
  <text x="410" y="105" text-anchor="end" font-family="'Inter', Arial, sans-serif" font-size="11" fill="#94a3b8" letter-spacing="0.5">LearnBridge</text>
</svg>
