<svg xmlns="http://www.w3.org/2000/svg" width="180" height="40" viewBox="0 0 180 40">
  <defs>
    <linearGradient id="logo-grad" x1="0%" y1="0%" x2="100%" y2="100%">
      <stop offset="0%" style="stop-color:#0B5FFF"/>
      <stop offset="100%" style="stop-color:#4A90D9"/>
    </linearGradient>
  </defs>
  <g transform="translate(0, 2)">
    <path d="M4 30 L4 14 L12 8 L20 14 L20 30 L14 30 L14 18 L10 18 L10 30 Z" fill="url(#logo-grad)"/>
    <path d="M24 30 L24 14 L30 14 L34 24 L38 14 L44 14 L44 30 L38 30 L38 20 L34 30 L30 20 L30 30 Z" fill="url(#logo-grad)"/>
    <path d="M48 30 L48 8 L54 8 L54 24 L62 24 L62 30 Z" fill="url(#logo-grad)"/>
    <path d="M68 30 L68 14 L76 14 L76 20 L80 20 L80 14 L88 14 L88 30 L82 30 L82 24 L74 24 L74 30 Z" fill="url(#logo-grad)"/>
    <text x="96" y="24" font-family="'Inter', 'Segoe UI', Arial, sans-serif" font-size="22" font-weight="800" fill="#1a202c" letter-spacing="-0.5">LearnBridge</text>
  </g>
</svg>
